<mxfile host="app.diagrams.net" agent="Mozilla/5.0 (Windows NT 10.0; Win64; x64) AppleWebKit/537.36 (KHTML, like Gecko) Chrome/130.0.0.0 Safari/537.36 Edg/130.0.0.0" version="24.8.0">
  <diagram name="Page-1" id="5d7acffa-a066-3a61-03fe-96351882024d">
    <mxGraphModel dx="1709" dy="904" grid="1" gridSize="10" guides="1" tooltips="1" connect="1" arrows="1" fold="1" page="1" pageScale="1" pageWidth="1100" pageHeight="850" background="#ffffff" math="0" shadow="0">
      <root>
        <mxCell id="0" />
        <mxCell id="1" parent="0" />
        <mxCell id="BSLRpSNt9OVdPa2F6NVs-5" value="" style="endArrow=none;dashed=1;html=1;rounded=0;" edge="1" parent="1">
          <mxGeometry width="50" height="50" relative="1" as="geometry">
            <mxPoint x="801.5700000000002" y="960" as="sourcePoint" />
            <mxPoint x="803.1386753216913" y="960" as="targetPoint" />
          </mxGeometry>
        </mxCell>
        <mxCell id="BSLRpSNt9OVdPa2F6NVs-18" value="" style="endArrow=none;dashed=1;html=1;rounded=0;" edge="1" parent="1" target="BSLRpSNt9OVdPa2F6NVs-17">
          <mxGeometry width="50" height="50" relative="1" as="geometry">
            <mxPoint x="159.22" y="40" as="sourcePoint" />
            <mxPoint x="800.7886753216912" y="40" as="targetPoint" />
          </mxGeometry>
        </mxCell>
        <mxCell id="BSLRpSNt9OVdPa2F6NVs-17" value="CCount" style="rounded=0;whiteSpace=wrap;html=1;" vertex="1" parent="1">
          <mxGeometry x="180" y="20" width="80" height="40" as="geometry" />
        </mxCell>
        <mxCell id="BSLRpSNt9OVdPa2F6NVs-20" value="" style="endArrow=none;dashed=1;html=1;rounded=0;" edge="1" parent="1" target="BSLRpSNt9OVdPa2F6NVs-19">
          <mxGeometry width="50" height="50" relative="1" as="geometry">
            <mxPoint x="159.22" y="160" as="sourcePoint" />
            <mxPoint x="800.7886753216912" y="160" as="targetPoint" />
          </mxGeometry>
        </mxCell>
        <mxCell id="BSLRpSNt9OVdPa2F6NVs-19" value="Addr" style="rounded=0;whiteSpace=wrap;html=1;" vertex="1" parent="1">
          <mxGeometry x="180" y="140" width="80" height="40" as="geometry" />
        </mxCell>
        <mxCell id="BSLRpSNt9OVdPa2F6NVs-25" value="" style="endArrow=classic;html=1;rounded=0;exitX=0.5;exitY=1;exitDx=0;exitDy=0;entryX=0.5;entryY=0;entryDx=0;entryDy=0;" edge="1" parent="1" source="BSLRpSNt9OVdPa2F6NVs-17" target="BSLRpSNt9OVdPa2F6NVs-19">
          <mxGeometry width="50" height="50" relative="1" as="geometry">
            <mxPoint x="290" y="90" as="sourcePoint" />
            <mxPoint x="340" y="40" as="targetPoint" />
          </mxGeometry>
        </mxCell>
        <mxCell id="BSLRpSNt9OVdPa2F6NVs-32" value="" style="endArrow=classic;html=1;rounded=0;entryX=0;entryY=0.5;entryDx=0;entryDy=0;exitX=0.5;exitY=1;exitDx=0;exitDy=0;" edge="1" parent="1" source="BSLRpSNt9OVdPa2F6NVs-17" target="BSLRpSNt9OVdPa2F6NVs-27">
          <mxGeometry width="50" height="50" relative="1" as="geometry">
            <mxPoint x="520" y="380" as="sourcePoint" />
            <mxPoint x="470" y="430" as="targetPoint" />
          </mxGeometry>
        </mxCell>
        <mxCell id="BSLRpSNt9OVdPa2F6NVs-33" value="" style="endArrow=classic;html=1;rounded=0;entryX=1;entryY=0.5;entryDx=0;entryDy=0;exitX=0.5;exitY=1;exitDx=0;exitDy=0;" edge="1" parent="1" source="BSLRpSNt9OVdPa2F6NVs-31" target="BSLRpSNt9OVdPa2F6NVs-27">
          <mxGeometry width="50" height="50" relative="1" as="geometry">
            <mxPoint x="380" y="60" as="sourcePoint" />
            <mxPoint x="420" y="110" as="targetPoint" />
          </mxGeometry>
        </mxCell>
        <mxCell id="BSLRpSNt9OVdPa2F6NVs-35" value="" style="endArrow=none;dashed=1;html=1;rounded=0;" edge="1" parent="1" target="BSLRpSNt9OVdPa2F6NVs-34">
          <mxGeometry width="50" height="50" relative="1" as="geometry">
            <mxPoint x="159.22" y="280" as="sourcePoint" />
            <mxPoint x="800.7886753216912" y="280" as="targetPoint" />
          </mxGeometry>
        </mxCell>
        <mxCell id="BSLRpSNt9OVdPa2F6NVs-34" value="Addr" style="rounded=0;whiteSpace=wrap;html=1;" vertex="1" parent="1">
          <mxGeometry x="180" y="260" width="80" height="40" as="geometry" />
        </mxCell>
        <mxCell id="BSLRpSNt9OVdPa2F6NVs-43" value="" style="endArrow=classic;html=1;rounded=0;exitX=0.5;exitY=1;exitDx=0;exitDy=0;entryX=0.5;entryY=0;entryDx=0;entryDy=0;" edge="1" parent="1" source="BSLRpSNt9OVdPa2F6NVs-26" target="BSLRpSNt9OVdPa2F6NVs-34">
          <mxGeometry width="50" height="50" relative="1" as="geometry">
            <mxPoint x="410" y="370" as="sourcePoint" />
            <mxPoint x="460" y="320" as="targetPoint" />
          </mxGeometry>
        </mxCell>
        <mxCell id="BSLRpSNt9OVdPa2F6NVs-51" value="" style="endArrow=none;dashed=1;html=1;rounded=0;" edge="1" parent="1" source="BSLRpSNt9OVdPa2F6NVs-19" target="BSLRpSNt9OVdPa2F6NVs-50">
          <mxGeometry width="50" height="50" relative="1" as="geometry">
            <mxPoint x="260" y="160" as="sourcePoint" />
            <mxPoint x="800.7886753216912" y="160" as="targetPoint" />
          </mxGeometry>
        </mxCell>
        <mxCell id="BSLRpSNt9OVdPa2F6NVs-50" value="Const 1" style="rounded=0;whiteSpace=wrap;html=1;" vertex="1" parent="1">
          <mxGeometry x="480" y="140" width="80" height="40" as="geometry" />
        </mxCell>
        <mxCell id="BSLRpSNt9OVdPa2F6NVs-52" value="" style="endArrow=classic;html=1;rounded=0;entryX=1;entryY=0.5;entryDx=0;entryDy=0;exitX=0.5;exitY=1;exitDx=0;exitDy=0;" edge="1" parent="1" source="BSLRpSNt9OVdPa2F6NVs-50" target="BSLRpSNt9OVdPa2F6NVs-46">
          <mxGeometry width="50" height="50" relative="1" as="geometry">
            <mxPoint x="390" y="70" as="sourcePoint" />
            <mxPoint x="350" y="120" as="targetPoint" />
          </mxGeometry>
        </mxCell>
        <mxCell id="BSLRpSNt9OVdPa2F6NVs-53" value="" style="endArrow=classic;html=1;rounded=0;entryX=0;entryY=0.5;entryDx=0;entryDy=0;exitX=0.5;exitY=1;exitDx=0;exitDy=0;" edge="1" parent="1" source="BSLRpSNt9OVdPa2F6NVs-26" target="BSLRpSNt9OVdPa2F6NVs-46">
          <mxGeometry width="50" height="50" relative="1" as="geometry">
            <mxPoint x="460" y="320" as="sourcePoint" />
            <mxPoint x="410" y="370" as="targetPoint" />
          </mxGeometry>
        </mxCell>
        <mxCell id="BSLRpSNt9OVdPa2F6NVs-54" value="" style="group" vertex="1" connectable="0" parent="1">
          <mxGeometry x="280" y="80" width="80" height="110" as="geometry" />
        </mxCell>
        <mxCell id="BSLRpSNt9OVdPa2F6NVs-106" value="" style="group" vertex="1" connectable="0" parent="BSLRpSNt9OVdPa2F6NVs-54">
          <mxGeometry width="80" height="110" as="geometry" />
        </mxCell>
        <mxCell id="BSLRpSNt9OVdPa2F6NVs-26" value="" style="rounded=1;whiteSpace=wrap;html=1;fillColor=none;dashed=1;" vertex="1" parent="BSLRpSNt9OVdPa2F6NVs-106">
          <mxGeometry width="80" height="110" as="geometry" />
        </mxCell>
        <mxCell id="BSLRpSNt9OVdPa2F6NVs-27" value="&lt;font style=&quot;font-size: 24px;&quot;&gt;+&lt;/font&gt;" style="ellipse;whiteSpace=wrap;html=1;aspect=fixed;" vertex="1" parent="BSLRpSNt9OVdPa2F6NVs-106">
          <mxGeometry x="20" y="10" width="40" height="40" as="geometry" />
        </mxCell>
        <mxCell id="BSLRpSNt9OVdPa2F6NVs-28" value="ADD1" style="rounded=0;whiteSpace=wrap;html=1;" vertex="1" parent="BSLRpSNt9OVdPa2F6NVs-106">
          <mxGeometry x="12.5" y="60" width="55" height="40" as="geometry" />
        </mxCell>
        <mxCell id="BSLRpSNt9OVdPa2F6NVs-56" value="" style="endArrow=none;dashed=1;html=1;rounded=0;" edge="1" parent="1" target="BSLRpSNt9OVdPa2F6NVs-55">
          <mxGeometry width="50" height="50" relative="1" as="geometry">
            <mxPoint x="160.79" y="400" as="sourcePoint" />
            <mxPoint x="802.3586753216912" y="400" as="targetPoint" />
          </mxGeometry>
        </mxCell>
        <mxCell id="BSLRpSNt9OVdPa2F6NVs-55" value="Addr" style="rounded=0;whiteSpace=wrap;html=1;" vertex="1" parent="1">
          <mxGeometry x="180" y="380" width="80" height="40" as="geometry" />
        </mxCell>
        <mxCell id="BSLRpSNt9OVdPa2F6NVs-57" value="" style="endArrow=classic;html=1;rounded=0;entryX=0.5;entryY=0;entryDx=0;entryDy=0;exitX=0.5;exitY=1;exitDx=0;exitDy=0;" edge="1" parent="1" source="BSLRpSNt9OVdPa2F6NVs-45" target="BSLRpSNt9OVdPa2F6NVs-55">
          <mxGeometry width="50" height="50" relative="1" as="geometry">
            <mxPoint x="460" y="320" as="sourcePoint" />
            <mxPoint x="410" y="370" as="targetPoint" />
          </mxGeometry>
        </mxCell>
        <mxCell id="BSLRpSNt9OVdPa2F6NVs-59" value="" style="group" vertex="1" connectable="0" parent="1">
          <mxGeometry x="160" y="200" width="60" height="50" as="geometry" />
        </mxCell>
        <mxCell id="BSLRpSNt9OVdPa2F6NVs-21" value="" style="endArrow=classic;html=1;rounded=0;exitX=0.5;exitY=1;exitDx=0;exitDy=0;" edge="1" parent="BSLRpSNt9OVdPa2F6NVs-59" source="BSLRpSNt9OVdPa2F6NVs-19">
          <mxGeometry width="50" height="50" relative="1" as="geometry">
            <mxPoint x="310" y="240" as="sourcePoint" />
            <mxPoint y="40" as="targetPoint" />
            <Array as="points">
              <mxPoint x="60" y="40" />
            </Array>
          </mxGeometry>
        </mxCell>
        <mxCell id="BSLRpSNt9OVdPa2F6NVs-23" value="EAB" style="text;html=1;align=center;verticalAlign=middle;whiteSpace=wrap;rounded=0;" vertex="1" parent="BSLRpSNt9OVdPa2F6NVs-59">
          <mxGeometry width="60" height="50" as="geometry" />
        </mxCell>
        <mxCell id="BSLRpSNt9OVdPa2F6NVs-60" value="" style="group" vertex="1" connectable="0" parent="1">
          <mxGeometry x="160" y="320" width="60" height="50" as="geometry" />
        </mxCell>
        <mxCell id="BSLRpSNt9OVdPa2F6NVs-61" value="" style="endArrow=classic;html=1;rounded=0;exitX=0.5;exitY=1;exitDx=0;exitDy=0;" edge="1" parent="BSLRpSNt9OVdPa2F6NVs-60" source="BSLRpSNt9OVdPa2F6NVs-34">
          <mxGeometry width="50" height="50" relative="1" as="geometry">
            <mxPoint x="310" y="240" as="sourcePoint" />
            <mxPoint y="40" as="targetPoint" />
            <Array as="points">
              <mxPoint x="60" y="40" />
            </Array>
          </mxGeometry>
        </mxCell>
        <mxCell id="BSLRpSNt9OVdPa2F6NVs-62" value="EAB" style="text;html=1;align=center;verticalAlign=middle;whiteSpace=wrap;rounded=0;" vertex="1" parent="BSLRpSNt9OVdPa2F6NVs-60">
          <mxGeometry width="60" height="50" as="geometry" />
        </mxCell>
        <mxCell id="BSLRpSNt9OVdPa2F6NVs-64" value="" style="endArrow=none;dashed=1;html=1;rounded=0;" edge="1" parent="1" source="BSLRpSNt9OVdPa2F6NVs-50" target="BSLRpSNt9OVdPa2F6NVs-63">
          <mxGeometry width="50" height="50" relative="1" as="geometry">
            <mxPoint x="560" y="160" as="sourcePoint" />
            <mxPoint x="800.7886753216912" y="160" as="targetPoint" />
          </mxGeometry>
        </mxCell>
        <mxCell id="BSLRpSNt9OVdPa2F6NVs-94" style="edgeStyle=orthogonalEdgeStyle;rounded=0;orthogonalLoop=1;jettySize=auto;html=1;exitX=0.5;exitY=1;exitDx=0;exitDy=0;entryX=0.5;entryY=0;entryDx=0;entryDy=0;" edge="1" parent="1" source="BSLRpSNt9OVdPa2F6NVs-63" target="BSLRpSNt9OVdPa2F6NVs-88">
          <mxGeometry relative="1" as="geometry">
            <Array as="points">
              <mxPoint x="640" y="220" />
              <mxPoint x="762" y="220" />
            </Array>
          </mxGeometry>
        </mxCell>
        <mxCell id="BSLRpSNt9OVdPa2F6NVs-63" value="Q" style="rounded=0;whiteSpace=wrap;html=1;" vertex="1" parent="1">
          <mxGeometry x="600" y="140" width="80" height="40" as="geometry" />
        </mxCell>
        <mxCell id="BSLRpSNt9OVdPa2F6NVs-68" value="" style="endArrow=none;dashed=1;html=1;rounded=0;" edge="1" parent="1" source="BSLRpSNt9OVdPa2F6NVs-203">
          <mxGeometry width="50" height="50" relative="1" as="geometry">
            <mxPoint x="420.5799999999999" y="440" as="sourcePoint" />
            <mxPoint x="600" y="400" as="targetPoint" />
          </mxGeometry>
        </mxCell>
        <mxCell id="BSLRpSNt9OVdPa2F6NVs-16" value="" style="endArrow=none;dashed=1;html=1;rounded=0;" edge="1" parent="1" source="BSLRpSNt9OVdPa2F6NVs-17">
          <mxGeometry width="50" height="50" relative="1" as="geometry">
            <mxPoint x="158.3448062735242" y="40" as="sourcePoint" />
            <mxPoint x="1280" y="40" as="targetPoint" />
          </mxGeometry>
        </mxCell>
        <mxCell id="BSLRpSNt9OVdPa2F6NVs-14" value="" style="endArrow=none;dashed=1;html=1;rounded=0;" edge="1" parent="1" source="BSLRpSNt9OVdPa2F6NVs-124">
          <mxGeometry width="50" height="50" relative="1" as="geometry">
            <mxPoint x="158.3448062735242" y="280" as="sourcePoint" />
            <mxPoint x="1270" y="280" as="targetPoint" />
          </mxGeometry>
        </mxCell>
        <mxCell id="BSLRpSNt9OVdPa2F6NVs-40" value="" style="endArrow=none;dashed=1;html=1;rounded=0;" edge="1" parent="1" source="BSLRpSNt9OVdPa2F6NVs-161">
          <mxGeometry width="50" height="50" relative="1" as="geometry">
            <mxPoint x="680" y="400" as="sourcePoint" />
            <mxPoint x="1280" y="400" as="targetPoint" />
          </mxGeometry>
        </mxCell>
        <mxCell id="BSLRpSNt9OVdPa2F6NVs-41" value="" style="endArrow=none;dashed=1;html=1;rounded=0;" edge="1" parent="1" source="BSLRpSNt9OVdPa2F6NVs-130">
          <mxGeometry width="50" height="50" relative="1" as="geometry">
            <mxPoint x="160.79" y="640" as="sourcePoint" />
            <mxPoint x="1280" y="640" as="targetPoint" />
          </mxGeometry>
        </mxCell>
        <mxCell id="BSLRpSNt9OVdPa2F6NVs-42" value="" style="endArrow=none;dashed=1;html=1;rounded=0;" edge="1" parent="1">
          <mxGeometry width="50" height="50" relative="1" as="geometry">
            <mxPoint x="160.79" y="760" as="sourcePoint" />
            <mxPoint x="1280" y="760" as="targetPoint" />
          </mxGeometry>
        </mxCell>
        <mxCell id="BSLRpSNt9OVdPa2F6NVs-70" value="" style="endArrow=none;dashed=1;html=1;rounded=0;" edge="1" parent="1">
          <mxGeometry width="50" height="50" relative="1" as="geometry">
            <mxPoint x="160" y="520" as="sourcePoint" />
            <mxPoint x="600" y="520" as="targetPoint" />
          </mxGeometry>
        </mxCell>
        <mxCell id="BSLRpSNt9OVdPa2F6NVs-31" value="Const 1" style="rounded=0;whiteSpace=wrap;html=1;" vertex="1" parent="1">
          <mxGeometry x="380" y="20" width="80" height="40" as="geometry" />
        </mxCell>
        <mxCell id="BSLRpSNt9OVdPa2F6NVs-89" value="" style="endArrow=none;dashed=1;html=1;rounded=0;" edge="1" parent="1" source="BSLRpSNt9OVdPa2F6NVs-34" target="BSLRpSNt9OVdPa2F6NVs-88">
          <mxGeometry width="50" height="50" relative="1" as="geometry">
            <mxPoint x="260" y="280" as="sourcePoint" />
            <mxPoint x="1157.5548062735243" y="280" as="targetPoint" />
            <Array as="points">
              <mxPoint x="660" y="280" />
            </Array>
          </mxGeometry>
        </mxCell>
        <mxCell id="BSLRpSNt9OVdPa2F6NVs-88" value="REGC" style="rounded=0;whiteSpace=wrap;html=1;" vertex="1" parent="1">
          <mxGeometry x="721.5699999999999" y="260" width="80" height="40" as="geometry" />
        </mxCell>
        <mxCell id="BSLRpSNt9OVdPa2F6NVs-96" style="edgeStyle=orthogonalEdgeStyle;rounded=0;orthogonalLoop=1;jettySize=auto;html=1;exitX=0.5;exitY=1;exitDx=0;exitDy=0;entryX=0.5;entryY=0;entryDx=0;entryDy=0;" edge="1" source="BSLRpSNt9OVdPa2F6NVs-97" target="BSLRpSNt9OVdPa2F6NVs-95" parent="1">
          <mxGeometry relative="1" as="geometry">
            <Array as="points">
              <mxPoint x="640" y="340" />
              <mxPoint x="762" y="340" />
            </Array>
          </mxGeometry>
        </mxCell>
        <mxCell id="BSLRpSNt9OVdPa2F6NVs-97" value="Q" style="rounded=0;whiteSpace=wrap;html=1;" vertex="1" parent="1">
          <mxGeometry x="600" y="260" width="80" height="40" as="geometry" />
        </mxCell>
        <mxCell id="BSLRpSNt9OVdPa2F6NVs-99" value="Q" style="rounded=0;whiteSpace=wrap;html=1;" vertex="1" parent="1">
          <mxGeometry x="600" y="380" width="80" height="40" as="geometry" />
        </mxCell>
        <mxCell id="BSLRpSNt9OVdPa2F6NVs-100" style="edgeStyle=orthogonalEdgeStyle;rounded=0;orthogonalLoop=1;jettySize=auto;html=1;exitX=0.5;exitY=1;exitDx=0;exitDy=0;entryX=0.5;entryY=0;entryDx=0;entryDy=0;" edge="1" source="BSLRpSNt9OVdPa2F6NVs-99" target="BSLRpSNt9OVdPa2F6NVs-101" parent="1">
          <mxGeometry relative="1" as="geometry">
            <Array as="points">
              <mxPoint x="640" y="460" />
              <mxPoint x="762" y="460" />
            </Array>
          </mxGeometry>
        </mxCell>
        <mxCell id="BSLRpSNt9OVdPa2F6NVs-101" value="REGC" style="rounded=0;whiteSpace=wrap;html=1;" vertex="1" parent="1">
          <mxGeometry x="721.5699999999999" y="500" width="80" height="40" as="geometry" />
        </mxCell>
        <mxCell id="BSLRpSNt9OVdPa2F6NVs-102" value="Q" style="rounded=0;whiteSpace=wrap;html=1;" vertex="1" parent="1">
          <mxGeometry x="601.57" y="500" width="80" height="40" as="geometry" />
        </mxCell>
        <mxCell id="BSLRpSNt9OVdPa2F6NVs-103" style="edgeStyle=orthogonalEdgeStyle;rounded=0;orthogonalLoop=1;jettySize=auto;html=1;exitX=0.5;exitY=1;exitDx=0;exitDy=0;entryX=0.5;entryY=0;entryDx=0;entryDy=0;" edge="1" source="BSLRpSNt9OVdPa2F6NVs-102" target="BSLRpSNt9OVdPa2F6NVs-104" parent="1">
          <mxGeometry relative="1" as="geometry">
            <Array as="points">
              <mxPoint x="641.57" y="580" />
              <mxPoint x="763.57" y="580" />
            </Array>
          </mxGeometry>
        </mxCell>
        <mxCell id="BSLRpSNt9OVdPa2F6NVs-123" value="" style="endArrow=classic;html=1;rounded=0;exitX=0.5;exitY=1;exitDx=0;exitDy=0;entryX=0;entryY=0.5;entryDx=0;entryDy=0;" edge="1" parent="1" source="BSLRpSNt9OVdPa2F6NVs-88" target="BSLRpSNt9OVdPa2F6NVs-121">
          <mxGeometry width="50" height="50" relative="1" as="geometry">
            <mxPoint x="830" y="410" as="sourcePoint" />
            <mxPoint x="880" y="360" as="targetPoint" />
          </mxGeometry>
        </mxCell>
        <mxCell id="BSLRpSNt9OVdPa2F6NVs-125" value="" style="endArrow=none;dashed=1;html=1;rounded=0;" edge="1" parent="1" source="BSLRpSNt9OVdPa2F6NVs-88" target="BSLRpSNt9OVdPa2F6NVs-124">
          <mxGeometry width="50" height="50" relative="1" as="geometry">
            <mxPoint x="802" y="280" as="sourcePoint" />
            <mxPoint x="1157.5548062735243" y="280" as="targetPoint" />
          </mxGeometry>
        </mxCell>
        <mxCell id="BSLRpSNt9OVdPa2F6NVs-124" value="REGX0" style="rounded=0;whiteSpace=wrap;html=1;" vertex="1" parent="1">
          <mxGeometry x="920" y="260" width="80" height="40" as="geometry" />
        </mxCell>
        <mxCell id="BSLRpSNt9OVdPa2F6NVs-127" value="" style="endArrow=none;dashed=1;html=1;rounded=0;" edge="1" parent="1" target="BSLRpSNt9OVdPa2F6NVs-126">
          <mxGeometry width="50" height="50" relative="1" as="geometry">
            <mxPoint x="680" y="400" as="sourcePoint" />
            <mxPoint x="1159.9999999999998" y="400" as="targetPoint" />
          </mxGeometry>
        </mxCell>
        <mxCell id="BSLRpSNt9OVdPa2F6NVs-126" value="REGX1" style="rounded=0;whiteSpace=wrap;html=1;" vertex="1" parent="1">
          <mxGeometry x="920" y="380" width="80" height="40" as="geometry" />
        </mxCell>
        <mxCell id="BSLRpSNt9OVdPa2F6NVs-129" value="" style="endArrow=none;dashed=1;html=1;rounded=0;entryX=0;entryY=0.5;entryDx=0;entryDy=0;" edge="1" parent="1" target="BSLRpSNt9OVdPa2F6NVs-101">
          <mxGeometry width="50" height="50" relative="1" as="geometry">
            <mxPoint x="680" y="520" as="sourcePoint" />
            <mxPoint x="1159.9999999999998" y="520" as="targetPoint" />
          </mxGeometry>
        </mxCell>
        <mxCell id="BSLRpSNt9OVdPa2F6NVs-128" value="REGX2" style="rounded=0;whiteSpace=wrap;html=1;" vertex="1" parent="1">
          <mxGeometry x="920" y="500" width="80" height="40" as="geometry" />
        </mxCell>
        <mxCell id="BSLRpSNt9OVdPa2F6NVs-131" value="" style="endArrow=none;dashed=1;html=1;rounded=0;" edge="1" parent="1" target="BSLRpSNt9OVdPa2F6NVs-130">
          <mxGeometry width="50" height="50" relative="1" as="geometry">
            <mxPoint x="160.79" y="640" as="sourcePoint" />
            <mxPoint x="1159.9999999999998" y="640" as="targetPoint" />
          </mxGeometry>
        </mxCell>
        <mxCell id="BSLRpSNt9OVdPa2F6NVs-130" value="REGX3" style="rounded=0;whiteSpace=wrap;html=1;" vertex="1" parent="1">
          <mxGeometry x="920" y="620" width="80" height="40" as="geometry" />
        </mxCell>
        <mxCell id="BSLRpSNt9OVdPa2F6NVs-132" value="" style="endArrow=none;dashed=1;html=1;rounded=0;exitX=1;exitY=0.5;exitDx=0;exitDy=0;entryX=0;entryY=0.5;entryDx=0;entryDy=0;" edge="1" parent="1" source="BSLRpSNt9OVdPa2F6NVs-101" target="BSLRpSNt9OVdPa2F6NVs-128">
          <mxGeometry width="50" height="50" relative="1" as="geometry">
            <mxPoint x="1010" y="530" as="sourcePoint" />
            <mxPoint x="1169.9999999999998" y="530" as="targetPoint" />
          </mxGeometry>
        </mxCell>
        <mxCell id="BSLRpSNt9OVdPa2F6NVs-49" value="" style="group" vertex="1" connectable="0" parent="1">
          <mxGeometry x="380" y="200" width="80" height="110" as="geometry" />
        </mxCell>
        <mxCell id="BSLRpSNt9OVdPa2F6NVs-45" value="" style="rounded=1;whiteSpace=wrap;html=1;fillColor=none;dashed=1;" vertex="1" parent="BSLRpSNt9OVdPa2F6NVs-49">
          <mxGeometry width="80" height="110" as="geometry" />
        </mxCell>
        <mxCell id="BSLRpSNt9OVdPa2F6NVs-46" value="&lt;font style=&quot;font-size: 24px;&quot;&gt;+&lt;/font&gt;" style="ellipse;whiteSpace=wrap;html=1;aspect=fixed;" vertex="1" parent="BSLRpSNt9OVdPa2F6NVs-49">
          <mxGeometry x="20" y="10" width="40" height="40" as="geometry" />
        </mxCell>
        <mxCell id="BSLRpSNt9OVdPa2F6NVs-47" value="ADD1" style="rounded=0;whiteSpace=wrap;html=1;" vertex="1" parent="BSLRpSNt9OVdPa2F6NVs-49">
          <mxGeometry x="12.500000000000028" y="60" width="55" height="40" as="geometry" />
        </mxCell>
        <mxCell id="BSLRpSNt9OVdPa2F6NVs-137" value="" style="endArrow=classic;html=1;rounded=0;exitX=0.5;exitY=1;exitDx=0;exitDy=0;entryX=1;entryY=0.5;entryDx=0;entryDy=0;" edge="1" parent="1" source="BSLRpSNt9OVdPa2F6NVs-124" target="BSLRpSNt9OVdPa2F6NVs-121">
          <mxGeometry width="50" height="50" relative="1" as="geometry">
            <mxPoint x="960" y="370" as="sourcePoint" />
            <mxPoint x="910" y="420" as="targetPoint" />
          </mxGeometry>
        </mxCell>
        <mxCell id="BSLRpSNt9OVdPa2F6NVs-120" value="" style="rounded=1;whiteSpace=wrap;html=1;fillColor=none;dashed=1;" vertex="1" parent="1">
          <mxGeometry x="820" y="320" width="80" height="110" as="geometry" />
        </mxCell>
        <mxCell id="BSLRpSNt9OVdPa2F6NVs-121" value="&lt;span style=&quot;font-size: 24px;&quot;&gt;x&lt;/span&gt;" style="ellipse;whiteSpace=wrap;html=1;aspect=fixed;" vertex="1" parent="1">
          <mxGeometry x="840" y="330" width="40" height="40" as="geometry" />
        </mxCell>
        <mxCell id="BSLRpSNt9OVdPa2F6NVs-122" value="MUL1" style="rounded=0;whiteSpace=wrap;html=1;" vertex="1" parent="1">
          <mxGeometry x="832.5" y="380" width="55" height="40" as="geometry" />
        </mxCell>
        <mxCell id="BSLRpSNt9OVdPa2F6NVs-138" value="" style="rounded=1;whiteSpace=wrap;html=1;fillColor=none;dashed=1;" vertex="1" parent="1">
          <mxGeometry x="820" y="440" width="80" height="110" as="geometry" />
        </mxCell>
        <mxCell id="BSLRpSNt9OVdPa2F6NVs-139" value="&lt;font style=&quot;font-size: 24px;&quot;&gt;x&lt;/font&gt;" style="ellipse;whiteSpace=wrap;html=1;aspect=fixed;" vertex="1" parent="1">
          <mxGeometry x="840" y="450" width="40" height="40" as="geometry" />
        </mxCell>
        <mxCell id="BSLRpSNt9OVdPa2F6NVs-140" value="MUL1" style="rounded=0;whiteSpace=wrap;html=1;" vertex="1" parent="1">
          <mxGeometry x="832.5" y="500" width="55" height="40" as="geometry" />
        </mxCell>
        <mxCell id="BSLRpSNt9OVdPa2F6NVs-141" value="" style="endArrow=classic;html=1;rounded=0;exitX=0.5;exitY=1;exitDx=0;exitDy=0;entryX=0;entryY=0.5;entryDx=0;entryDy=0;" edge="1" parent="1" source="BSLRpSNt9OVdPa2F6NVs-95" target="BSLRpSNt9OVdPa2F6NVs-139">
          <mxGeometry width="50" height="50" relative="1" as="geometry">
            <mxPoint x="870" y="430" as="sourcePoint" />
            <mxPoint x="920" y="380" as="targetPoint" />
          </mxGeometry>
        </mxCell>
        <mxCell id="BSLRpSNt9OVdPa2F6NVs-142" value="" style="endArrow=classic;html=1;rounded=0;exitX=0.5;exitY=1;exitDx=0;exitDy=0;entryX=1;entryY=0.5;entryDx=0;entryDy=0;" edge="1" parent="1" source="BSLRpSNt9OVdPa2F6NVs-126" target="BSLRpSNt9OVdPa2F6NVs-139">
          <mxGeometry width="50" height="50" relative="1" as="geometry">
            <mxPoint x="772" y="430" as="sourcePoint" />
            <mxPoint x="850" y="480" as="targetPoint" />
          </mxGeometry>
        </mxCell>
        <mxCell id="BSLRpSNt9OVdPa2F6NVs-143" value="MUL1" style="rounded=0;whiteSpace=wrap;html=1;" vertex="1" parent="1">
          <mxGeometry x="832.5" y="620" width="55" height="40" as="geometry" />
        </mxCell>
        <mxCell id="BSLRpSNt9OVdPa2F6NVs-144" value="&lt;font style=&quot;font-size: 24px;&quot;&gt;x&lt;/font&gt;" style="ellipse;whiteSpace=wrap;html=1;aspect=fixed;" vertex="1" parent="1">
          <mxGeometry x="840" y="570" width="40" height="40" as="geometry" />
        </mxCell>
        <mxCell id="BSLRpSNt9OVdPa2F6NVs-145" value="" style="rounded=1;whiteSpace=wrap;html=1;fillColor=none;dashed=1;" vertex="1" parent="1">
          <mxGeometry x="820" y="560" width="80" height="110" as="geometry" />
        </mxCell>
        <mxCell id="BSLRpSNt9OVdPa2F6NVs-146" value="" style="endArrow=classic;html=1;rounded=0;exitX=0.5;exitY=1;exitDx=0;exitDy=0;entryX=0.75;entryY=0.273;entryDx=0;entryDy=0;entryPerimeter=0;" edge="1" parent="1" source="BSLRpSNt9OVdPa2F6NVs-128" target="BSLRpSNt9OVdPa2F6NVs-145">
          <mxGeometry width="50" height="50" relative="1" as="geometry">
            <mxPoint x="970" y="430" as="sourcePoint" />
            <mxPoint x="890" y="480" as="targetPoint" />
          </mxGeometry>
        </mxCell>
        <mxCell id="BSLRpSNt9OVdPa2F6NVs-147" value="" style="endArrow=classic;html=1;rounded=0;exitX=0.5;exitY=1;exitDx=0;exitDy=0;entryX=0.25;entryY=0.273;entryDx=0;entryDy=0;entryPerimeter=0;" edge="1" parent="1" source="BSLRpSNt9OVdPa2F6NVs-101" target="BSLRpSNt9OVdPa2F6NVs-145">
          <mxGeometry width="50" height="50" relative="1" as="geometry">
            <mxPoint x="772" y="430" as="sourcePoint" />
            <mxPoint x="850" y="480" as="targetPoint" />
          </mxGeometry>
        </mxCell>
        <mxCell id="BSLRpSNt9OVdPa2F6NVs-104" value="REGC" style="rounded=0;whiteSpace=wrap;html=1;" vertex="1" parent="1">
          <mxGeometry x="723.14" y="620" width="80" height="40" as="geometry" />
        </mxCell>
        <mxCell id="BSLRpSNt9OVdPa2F6NVs-95" value="REGC" style="rounded=0;whiteSpace=wrap;html=1;" vertex="1" parent="1">
          <mxGeometry x="721.5699999999999" y="380" width="80" height="40" as="geometry" />
        </mxCell>
        <mxCell id="BSLRpSNt9OVdPa2F6NVs-150" value="" style="endArrow=none;dashed=1;html=1;rounded=0;" edge="1" parent="1" source="BSLRpSNt9OVdPa2F6NVs-63">
          <mxGeometry width="50" height="50" relative="1" as="geometry">
            <mxPoint x="680" y="160" as="sourcePoint" />
            <mxPoint x="1280" y="160" as="targetPoint" />
          </mxGeometry>
        </mxCell>
        <mxCell id="BSLRpSNt9OVdPa2F6NVs-153" value="" style="endArrow=none;dashed=1;html=1;rounded=0;" edge="1" parent="1" source="BSLRpSNt9OVdPa2F6NVs-128">
          <mxGeometry width="50" height="50" relative="1" as="geometry">
            <mxPoint x="1000" y="520" as="sourcePoint" />
            <mxPoint x="1280" y="520" as="targetPoint" />
          </mxGeometry>
        </mxCell>
        <mxCell id="BSLRpSNt9OVdPa2F6NVs-154" value="" style="rounded=1;whiteSpace=wrap;html=1;fillColor=none;dashed=1;" vertex="1" parent="1">
          <mxGeometry x="1020" y="440" width="80" height="110" as="geometry" />
        </mxCell>
        <mxCell id="BSLRpSNt9OVdPa2F6NVs-155" value="&lt;span style=&quot;font-size: 24px;&quot;&gt;+&lt;/span&gt;" style="ellipse;whiteSpace=wrap;html=1;aspect=fixed;" vertex="1" parent="1">
          <mxGeometry x="1040" y="450" width="40" height="40" as="geometry" />
        </mxCell>
        <mxCell id="BSLRpSNt9OVdPa2F6NVs-156" value="ADD1" style="rounded=0;whiteSpace=wrap;html=1;" vertex="1" parent="1">
          <mxGeometry x="1032.5" y="500" width="55" height="40" as="geometry" />
        </mxCell>
        <mxCell id="BSLRpSNt9OVdPa2F6NVs-160" value="" style="endArrow=classic;html=1;rounded=0;exitX=0.5;exitY=1;exitDx=0;exitDy=0;entryX=0;entryY=0.5;entryDx=0;entryDy=0;" edge="1" parent="1" source="BSLRpSNt9OVdPa2F6NVs-120" target="BSLRpSNt9OVdPa2F6NVs-155">
          <mxGeometry width="50" height="50" relative="1" as="geometry">
            <mxPoint x="930" y="350" as="sourcePoint" />
            <mxPoint x="980" y="300" as="targetPoint" />
          </mxGeometry>
        </mxCell>
        <mxCell id="BSLRpSNt9OVdPa2F6NVs-162" value="" style="endArrow=none;dashed=1;html=1;rounded=0;" edge="1" parent="1" source="BSLRpSNt9OVdPa2F6NVs-126" target="BSLRpSNt9OVdPa2F6NVs-161">
          <mxGeometry width="50" height="50" relative="1" as="geometry">
            <mxPoint x="1000" y="400" as="sourcePoint" />
            <mxPoint x="1280" y="400" as="targetPoint" />
          </mxGeometry>
        </mxCell>
        <mxCell id="BSLRpSNt9OVdPa2F6NVs-161" value="CONST 0" style="rounded=0;whiteSpace=wrap;html=1;" vertex="1" parent="1">
          <mxGeometry x="1120" y="380" width="80" height="40" as="geometry" />
        </mxCell>
        <mxCell id="BSLRpSNt9OVdPa2F6NVs-163" value="" style="endArrow=classic;html=1;rounded=0;exitX=0.5;exitY=1;exitDx=0;exitDy=0;entryX=1;entryY=0.5;entryDx=0;entryDy=0;" edge="1" parent="1" source="BSLRpSNt9OVdPa2F6NVs-161" target="BSLRpSNt9OVdPa2F6NVs-155">
          <mxGeometry width="50" height="50" relative="1" as="geometry">
            <mxPoint x="1170" y="360" as="sourcePoint" />
            <mxPoint x="1220" y="310" as="targetPoint" />
          </mxGeometry>
        </mxCell>
        <mxCell id="BSLRpSNt9OVdPa2F6NVs-165" value="" style="rounded=1;whiteSpace=wrap;html=1;fillColor=none;dashed=1;" vertex="1" parent="1">
          <mxGeometry x="1020" y="560" width="80" height="110" as="geometry" />
        </mxCell>
        <mxCell id="BSLRpSNt9OVdPa2F6NVs-166" value="&lt;span style=&quot;font-size: 24px;&quot;&gt;+&lt;/span&gt;" style="ellipse;whiteSpace=wrap;html=1;aspect=fixed;" vertex="1" parent="1">
          <mxGeometry x="1040" y="570" width="40" height="40" as="geometry" />
        </mxCell>
        <mxCell id="BSLRpSNt9OVdPa2F6NVs-167" value="ADD1" style="rounded=0;whiteSpace=wrap;html=1;" vertex="1" parent="1">
          <mxGeometry x="1032.5" y="620" width="55" height="40" as="geometry" />
        </mxCell>
        <mxCell id="BSLRpSNt9OVdPa2F6NVs-169" value="" style="endArrow=classic;html=1;rounded=0;exitX=0.5;exitY=1;exitDx=0;exitDy=0;" edge="1" parent="1" source="BSLRpSNt9OVdPa2F6NVs-154" target="BSLRpSNt9OVdPa2F6NVs-166">
          <mxGeometry width="50" height="50" relative="1" as="geometry">
            <mxPoint x="1170" y="430" as="sourcePoint" />
            <mxPoint x="1090" y="480" as="targetPoint" />
          </mxGeometry>
        </mxCell>
        <mxCell id="BSLRpSNt9OVdPa2F6NVs-170" value="" style="endArrow=classic;html=1;rounded=0;exitX=0.5;exitY=1;exitDx=0;exitDy=0;entryX=0;entryY=0.5;entryDx=0;entryDy=0;" edge="1" parent="1" source="BSLRpSNt9OVdPa2F6NVs-138" target="BSLRpSNt9OVdPa2F6NVs-166">
          <mxGeometry width="50" height="50" relative="1" as="geometry">
            <mxPoint x="1170" y="430" as="sourcePoint" />
            <mxPoint x="1090" y="480" as="targetPoint" />
          </mxGeometry>
        </mxCell>
        <mxCell id="BSLRpSNt9OVdPa2F6NVs-171" value="" style="rounded=1;whiteSpace=wrap;html=1;fillColor=none;dashed=1;" vertex="1" parent="1">
          <mxGeometry x="820" y="680" width="80" height="110" as="geometry" />
        </mxCell>
        <mxCell id="BSLRpSNt9OVdPa2F6NVs-172" value="&lt;span style=&quot;font-size: 24px;&quot;&gt;x&lt;/span&gt;" style="ellipse;whiteSpace=wrap;html=1;aspect=fixed;" vertex="1" parent="1">
          <mxGeometry x="840" y="690" width="40" height="40" as="geometry" />
        </mxCell>
        <mxCell id="BSLRpSNt9OVdPa2F6NVs-173" value="MUL1" style="rounded=0;whiteSpace=wrap;html=1;" vertex="1" parent="1">
          <mxGeometry x="832.5" y="740" width="55" height="40" as="geometry" />
        </mxCell>
        <mxCell id="BSLRpSNt9OVdPa2F6NVs-175" value="" style="endArrow=classic;html=1;rounded=0;exitX=0.5;exitY=1;exitDx=0;exitDy=0;entryX=0;entryY=0.5;entryDx=0;entryDy=0;" edge="1" parent="1" source="BSLRpSNt9OVdPa2F6NVs-104" target="BSLRpSNt9OVdPa2F6NVs-172">
          <mxGeometry width="50" height="50" relative="1" as="geometry">
            <mxPoint x="762" y="680" as="sourcePoint" />
            <mxPoint x="800" y="710" as="targetPoint" />
          </mxGeometry>
        </mxCell>
        <mxCell id="BSLRpSNt9OVdPa2F6NVs-178" value="" style="endArrow=classic;html=1;rounded=0;exitX=0.5;exitY=1;exitDx=0;exitDy=0;entryX=1;entryY=0.5;entryDx=0;entryDy=0;" edge="1" parent="1" source="BSLRpSNt9OVdPa2F6NVs-130" target="BSLRpSNt9OVdPa2F6NVs-172">
          <mxGeometry width="50" height="50" relative="1" as="geometry">
            <mxPoint x="970" y="550" as="sourcePoint" />
            <mxPoint x="890" y="600" as="targetPoint" />
          </mxGeometry>
        </mxCell>
        <mxCell id="BSLRpSNt9OVdPa2F6NVs-6" value="" style="endArrow=none;dashed=1;html=1;rounded=0;" edge="1" parent="1">
          <mxGeometry width="50" height="50" relative="1" as="geometry">
            <mxPoint x="160" y="880" as="sourcePoint" />
            <mxPoint x="1280" y="880" as="targetPoint" />
          </mxGeometry>
        </mxCell>
        <mxCell id="BSLRpSNt9OVdPa2F6NVs-7" value="" style="endArrow=none;dashed=1;html=1;rounded=0;" edge="1" parent="1">
          <mxGeometry width="50" height="50" relative="1" as="geometry">
            <mxPoint x="160" y="1000" as="sourcePoint" />
            <mxPoint x="1280" y="1000" as="targetPoint" />
          </mxGeometry>
        </mxCell>
        <mxCell id="BSLRpSNt9OVdPa2F6NVs-8" value="" style="endArrow=none;dashed=1;html=1;rounded=0;" edge="1" parent="1">
          <mxGeometry width="50" height="50" relative="1" as="geometry">
            <mxPoint x="160" y="1120" as="sourcePoint" />
            <mxPoint x="1280" y="1120" as="targetPoint" />
          </mxGeometry>
        </mxCell>
        <mxCell id="BSLRpSNt9OVdPa2F6NVs-185" value="ADD1" style="rounded=0;whiteSpace=wrap;html=1;" vertex="1" parent="1">
          <mxGeometry x="1032.5" y="740" width="55" height="40" as="geometry" />
        </mxCell>
        <mxCell id="BSLRpSNt9OVdPa2F6NVs-186" value="&lt;span style=&quot;font-size: 24px;&quot;&gt;+&lt;/span&gt;" style="ellipse;whiteSpace=wrap;html=1;aspect=fixed;" vertex="1" parent="1">
          <mxGeometry x="1040" y="690" width="40" height="40" as="geometry" />
        </mxCell>
        <mxCell id="BSLRpSNt9OVdPa2F6NVs-187" value="" style="rounded=1;whiteSpace=wrap;html=1;fillColor=none;dashed=1;" vertex="1" parent="1">
          <mxGeometry x="1020" y="680" width="80" height="110" as="geometry" />
        </mxCell>
        <mxCell id="BSLRpSNt9OVdPa2F6NVs-188" value="ADD1" style="rounded=0;whiteSpace=wrap;html=1;" vertex="1" parent="1">
          <mxGeometry x="1032.5" y="860" width="55" height="40" as="geometry" />
        </mxCell>
        <mxCell id="BSLRpSNt9OVdPa2F6NVs-189" value="&lt;span style=&quot;font-size: 24px;&quot;&gt;+&lt;/span&gt;" style="ellipse;whiteSpace=wrap;html=1;aspect=fixed;" vertex="1" parent="1">
          <mxGeometry x="1040" y="810" width="40" height="40" as="geometry" />
        </mxCell>
        <mxCell id="BSLRpSNt9OVdPa2F6NVs-190" value="" style="rounded=1;whiteSpace=wrap;html=1;fillColor=none;dashed=1;" vertex="1" parent="1">
          <mxGeometry x="1020" y="800" width="80" height="110" as="geometry" />
        </mxCell>
        <mxCell id="BSLRpSNt9OVdPa2F6NVs-191" value="" style="endArrow=classic;html=1;rounded=0;exitX=0.5;exitY=1;exitDx=0;exitDy=0;entryX=0.25;entryY=0.273;entryDx=0;entryDy=0;entryPerimeter=0;" edge="1" parent="1" source="BSLRpSNt9OVdPa2F6NVs-171" target="BSLRpSNt9OVdPa2F6NVs-190">
          <mxGeometry width="50" height="50" relative="1" as="geometry">
            <mxPoint x="773" y="670" as="sourcePoint" />
            <mxPoint x="850" y="720" as="targetPoint" />
          </mxGeometry>
        </mxCell>
        <mxCell id="BSLRpSNt9OVdPa2F6NVs-192" value="" style="endArrow=classic;html=1;rounded=0;exitX=0.5;exitY=1;exitDx=0;exitDy=0;entryX=0.25;entryY=0.273;entryDx=0;entryDy=0;entryPerimeter=0;" edge="1" parent="1" source="BSLRpSNt9OVdPa2F6NVs-145" target="BSLRpSNt9OVdPa2F6NVs-187">
          <mxGeometry width="50" height="50" relative="1" as="geometry">
            <mxPoint x="870" y="800" as="sourcePoint" />
            <mxPoint x="1050" y="840" as="targetPoint" />
          </mxGeometry>
        </mxCell>
        <mxCell id="BSLRpSNt9OVdPa2F6NVs-193" style="edgeStyle=orthogonalEdgeStyle;rounded=0;orthogonalLoop=1;jettySize=auto;html=1;exitX=0.5;exitY=1;exitDx=0;exitDy=0;entryX=0.5;entryY=0.091;entryDx=0;entryDy=0;entryPerimeter=0;" edge="1" parent="1" source="BSLRpSNt9OVdPa2F6NVs-165" target="BSLRpSNt9OVdPa2F6NVs-187">
          <mxGeometry relative="1" as="geometry" />
        </mxCell>
        <mxCell id="BSLRpSNt9OVdPa2F6NVs-195" style="edgeStyle=orthogonalEdgeStyle;rounded=0;orthogonalLoop=1;jettySize=auto;html=1;exitX=0.5;exitY=1;exitDx=0;exitDy=0;entryX=0.5;entryY=0.091;entryDx=0;entryDy=0;entryPerimeter=0;" edge="1" parent="1" source="BSLRpSNt9OVdPa2F6NVs-187" target="BSLRpSNt9OVdPa2F6NVs-190">
          <mxGeometry relative="1" as="geometry" />
        </mxCell>
        <mxCell id="BSLRpSNt9OVdPa2F6NVs-196" value="" style="endArrow=classic;html=1;rounded=0;exitX=0.5;exitY=1;exitDx=0;exitDy=0;" edge="1" parent="1" source="BSLRpSNt9OVdPa2F6NVs-190">
          <mxGeometry width="50" height="50" relative="1" as="geometry">
            <mxPoint x="1050" y="760" as="sourcePoint" />
            <mxPoint x="960" y="960" as="targetPoint" />
            <Array as="points">
              <mxPoint x="1060" y="960" />
            </Array>
          </mxGeometry>
        </mxCell>
        <mxCell id="BSLRpSNt9OVdPa2F6NVs-199" value="EAB" style="text;html=1;align=center;verticalAlign=middle;whiteSpace=wrap;rounded=0;" vertex="1" parent="1">
          <mxGeometry x="980" y="910" width="60" height="50" as="geometry" />
        </mxCell>
        <mxCell id="BSLRpSNt9OVdPa2F6NVs-204" value="" style="endArrow=none;dashed=1;html=1;rounded=0;" edge="1" parent="1" source="BSLRpSNt9OVdPa2F6NVs-55" target="BSLRpSNt9OVdPa2F6NVs-203">
          <mxGeometry width="50" height="50" relative="1" as="geometry">
            <mxPoint x="260" y="400" as="sourcePoint" />
            <mxPoint x="600" y="400" as="targetPoint" />
          </mxGeometry>
        </mxCell>
        <mxCell id="BSLRpSNt9OVdPa2F6NVs-203" value="CCount" style="rounded=0;whiteSpace=wrap;html=1;" vertex="1" parent="1">
          <mxGeometry x="380" y="380" width="80" height="40" as="geometry" />
        </mxCell>
        <mxCell id="BSLRpSNt9OVdPa2F6NVs-205" value="" style="endArrow=classic;html=1;rounded=0;exitX=0.5;exitY=1;exitDx=0;exitDy=0;entryX=0.5;entryY=0;entryDx=0;entryDy=0;" edge="1" parent="1" source="BSLRpSNt9OVdPa2F6NVs-45" target="BSLRpSNt9OVdPa2F6NVs-203">
          <mxGeometry width="50" height="50" relative="1" as="geometry">
            <mxPoint x="420" y="330" as="sourcePoint" />
            <mxPoint x="470" y="280" as="targetPoint" />
          </mxGeometry>
        </mxCell>
        <mxCell id="BSLRpSNt9OVdPa2F6NVs-207" value="Addr" style="rounded=0;whiteSpace=wrap;html=1;" vertex="1" parent="1">
          <mxGeometry x="380" y="860" width="80" height="40" as="geometry" />
        </mxCell>
        <mxCell id="BSLRpSNt9OVdPa2F6NVs-212" style="edgeStyle=orthogonalEdgeStyle;rounded=0;orthogonalLoop=1;jettySize=auto;html=1;exitX=0.5;exitY=1;exitDx=0;exitDy=0;entryX=0.5;entryY=0;entryDx=0;entryDy=0;" edge="1" parent="1" source="BSLRpSNt9OVdPa2F6NVs-211" target="BSLRpSNt9OVdPa2F6NVs-207">
          <mxGeometry relative="1" as="geometry" />
        </mxCell>
        <mxCell id="BSLRpSNt9OVdPa2F6NVs-211" value="DC" style="rounded=0;whiteSpace=wrap;html=1;" vertex="1" parent="1">
          <mxGeometry x="380" y="740" width="80" height="40" as="geometry" />
        </mxCell>
      </root>
    </mxGraphModel>
  </diagram>
</mxfile>
